<svg width="16" height="17" viewBox="0 0 16 17" fill="none" xmlns="http://www.w3.org/2000/svg">
<path d="M2.66683 2.5C1.9315 2.5 1.3335 3.098 1.3335 3.83333V14.5H10.6668H14.6668V6.5C14.6668 5.77129 14.0622 5.16667 13.3335 5.16667H10.6668V3.83333C10.6668 3.098 10.0688 2.5 9.3335 2.5L2.66683 2.5ZM4.00016 5.16667H5.33349V6.5H4.00016V5.16667ZM6.66683 5.16667H8.00016V6.5H6.66683V5.16667ZM10.6668 6.5H13.3335V13.1667H10.6668V11.8333H12.0002V10.5H10.6668V9.16667H12.0002V7.83333H10.6668V6.5ZM4.00016 7.83333H5.33349V9.16667H4.00016V7.83333ZM6.66683 7.83333H8.00016V9.16667H6.66683V7.83333ZM4.00016 10.5H5.33349V11.8333H4.00016V10.5ZM6.66683 10.5H8.00016V11.8333H6.66683V10.5Z" fill="#051534" fill-opacity="0.4"/>
</svg>
