<svg width="22" height="22" viewBox="0 0 22 22" fill="none" xmlns="http://www.w3.org/2000/svg">
<path fill-rule="evenodd" clip-rule="evenodd" d="M20.8292 4.39611C21.1705 4.7415 21.4156 5.17095 21.54 5.64151C22 7.37829 22 11.0002 22 11.0002C22 11.0002 22 14.622 21.54 16.3588C21.4156 16.8294 21.1705 17.2588 20.8292 17.6042C20.4878 17.9496 20.0622 18.1988 19.595 18.3268C17.875 18.7918 11 18.7918 11 18.7918C11 18.7918 4.125 18.7918 2.405 18.3268C1.93777 18.1988 1.51219 17.9496 1.17085 17.6042C0.829506 17.2588 0.58438 16.8294 0.46 16.3588C0 14.622 0 11.0002 0 11.0002C0 11.0002 0 7.37829 0.46 5.64151C0.58438 5.17095 0.829506 4.7415 1.17085 4.39611C1.51219 4.05073 1.93777 3.80154 2.405 3.67348C4.125 3.2085 11 3.2085 11 3.2085C11 3.2085 17.875 3.2085 19.595 3.67348C20.0622 3.80154 20.4878 4.05073 20.8292 4.39611ZM14.5 11.0002L8.74996 7.71135V14.289L14.5 11.0002Z" fill="white"/>
</svg>
